# xmcd CD database file
#
# Track frame offsets:
#	150
#	26101
#	45092
#	58274
#
# Disc length: 1122 seconds
#
# Revision: 0
# Processed by: cddbd v1.5.1PL0 Copyright (c) Steve Scherf et al.
# Submitted via: CDex 1.51
#
DISCID=2c046004
DTITLE=河口 恭吾 - 私のすべて
DYEAR=2005
DGENRE=J-Pop
TTITLE0=私のすべて
TTITLE1=群青
TTITLE2=くちぶえ (NON-PA LIVE 「ROOTS OF THE MUSIC2004」ver.)
TTITLE3=私のすべて (-One Version)
EXTD=YEAR: 2005
EXTT0=
EXTT1=
EXTT2=
EXTT3=
PLAYORDER=
